<svg width="32" height="32" viewBox="0 0 32 32" fill="none" xmlns="http://www.w3.org/2000/svg">
<path d="M31.5206 19.8721C29.3849 28.4429 20.7015 33.6593 12.1281 31.5204C3.55476 29.3815 -1.6593 20.7024 0.479794 12.1308C2.61889 3.55917 11.298 -1.65969 19.8694 0.479565C28.4409 2.61882 33.6597 11.2984 31.5206 19.8721Z" fill="#F7931A"/>
<path d="M23.056 13.7204C23.3741 11.5912 21.7529 10.4465 19.5359 9.68301L20.2559 6.79893L18.4997 6.36148L17.7982 9.16972C17.3371 9.05483 16.8632 8.94571 16.3921 8.83883L17.0961 6.01203L15.3417 5.57458L14.6238 8.45754L11.0825 7.58039L10.6153 9.4558C10.6153 9.4558 11.9181 9.75437 11.8906 9.77293C12.6016 9.95054 12.7306 10.4209 12.7088 10.7941L10.7385 18.6951C10.6515 18.9111 10.431 19.2349 9.93403 19.1111C9.95163 19.1367 8.65784 18.7911 8.65784 18.7911L7.78613 20.8038L11.3222 21.6966L10.5955 24.6143L12.3491 25.0517L13.0692 22.1654C13.5492 22.2954 14.0132 22.4154 14.4679 22.5283L13.7508 25.4012L15.5067 25.8386L16.2334 22.9266C19.2276 23.493 21.4791 23.2645 22.4256 20.5585C23.1891 18.3784 22.3881 17.1208 20.8127 16.3003C21.96 16.0347 22.824 15.2804 23.0545 13.7215L23.056 13.7204ZM19.0431 19.346C18.4991 21.5261 14.8294 20.3479 13.6386 20.0519L14.6028 16.187C15.7929 16.484 19.6092 17.0722 19.0437 19.3457L19.0431 19.346ZM19.5877 13.6895C19.0927 15.6736 16.0371 14.6655 15.0454 14.4182L15.9184 10.9118C16.9104 11.1595 20.1026 11.6207 19.5865 13.6894" fill="white"/>
</svg>
