<svg width="32" height="32" viewBox="0 0 32 32" fill="none" xmlns="http://www.w3.org/2000/svg">
<circle cx="16" cy="16" r="16" fill="#00284C"/>
<path d="M25.1023 25.1019C25.7664 24.4378 25.7664 23.3611 25.1023 22.697C24.4382 22.0329 23.3615 22.0329 22.6974 22.697C22.0333 23.3611 22.0333 24.4378 22.6974 25.1019C23.3615 25.7661 24.4382 25.7661 25.1023 25.1019Z" fill="white"/>
<path d="M9.30343 25.1019C9.96754 24.4378 9.96754 23.3611 9.30343 22.697C8.63932 22.0329 7.56258 22.0329 6.89847 22.697C6.23436 23.3611 6.23436 24.4378 6.89847 25.1019C7.56258 25.7661 8.63932 25.7661 9.30343 25.1019Z" fill="white"/>
<path d="M9.30343 9.30306C9.96754 8.63895 9.96754 7.56222 9.30343 6.89811C8.63932 6.234 7.56258 6.234 6.89847 6.89811C6.23436 7.56222 6.23436 8.63895 6.89847 9.30306C7.56258 9.96717 8.63932 9.96717 9.30343 9.30306Z" fill="white"/>
<path d="M25.1023 9.30306C25.7664 8.63895 25.7664 7.56222 25.1023 6.89811C24.4382 6.234 23.3615 6.234 22.6974 6.89811C22.0333 7.56222 22.0333 8.63895 22.6974 9.30306C23.3615 9.96717 24.4382 9.96717 25.1023 9.30306Z" fill="white"/>
<path fill-rule="evenodd" clip-rule="evenodd" d="M10.6115 8.20703C13.8449 5.96916 18.1588 5.96916 21.3881 8.20703L18.9196 10.6756C17.1066 9.68007 14.893 9.68007 13.08 10.6756L10.6115 8.20703ZM23.7919 10.6108C26.0298 13.8442 26.0298 18.1581 23.7919 21.3874L21.3234 18.9189C22.3189 17.1059 22.3189 14.8923 21.3234 13.0794L23.7919 10.6108ZM21.3881 23.7912C18.1588 26.0291 13.8449 26.0291 10.6115 23.7912L13.08 21.3227C14.893 22.3182 17.1066 22.3182 18.9196 21.3227L21.3881 23.7912ZM8.2077 21.3874C5.96983 18.1581 5.96983 13.8442 8.2077 10.6108L10.6762 13.0794C9.68074 14.8923 9.68074 17.1059 10.6762 18.9189L8.2077 21.3874Z" fill="white"/>
<path d="M16.2584 16.2577C16.4007 16.1154 16.4007 15.8847 16.2584 15.7424C16.1161 15.6001 15.8853 15.6001 15.743 15.7424C15.6007 15.8847 15.6007 16.1154 15.743 16.2577C15.8853 16.4 16.1161 16.4 16.2584 16.2577Z" fill="white"/>
<path d="M10.2965 10.2963C10.4388 10.154 10.4388 9.92327 10.2965 9.78096C10.1541 9.63865 9.92342 9.63865 9.78111 9.78096C9.6388 9.92327 9.6388 10.154 9.78111 10.2963C9.92342 10.4386 10.1541 10.4386 10.2965 10.2963Z" fill="white"/>
<path d="M11.2906 11.2899C11.4329 11.1476 11.4329 10.9169 11.2906 10.7746C11.1483 10.6322 10.9176 10.6322 10.7753 10.7746C10.6329 10.9169 10.6329 11.1476 10.7753 11.2899C10.9176 11.4322 11.1483 11.4322 11.2906 11.2899Z" fill="white"/>
<path d="M12.2838 12.2834C12.4261 12.1411 12.4261 11.9104 12.2838 11.7681C12.1415 11.6258 11.9107 11.6258 11.7684 11.7681C11.6261 11.9104 11.6261 12.1411 11.7684 12.2834C11.9107 12.4257 12.1415 12.4257 12.2838 12.2834Z" fill="white"/>
<path d="M13.2769 13.277C13.4192 13.1347 13.4192 12.904 13.2769 12.7617C13.1346 12.6194 12.9039 12.6194 12.7616 12.7617C12.6193 12.904 12.6193 13.1347 12.7616 13.277C12.9039 13.4193 13.1346 13.4193 13.2769 13.277Z" fill="white"/>
<path d="M14.2711 14.2706C14.4134 14.1282 14.4134 13.8975 14.2711 13.7552C14.1288 13.6129 13.898 13.6129 13.7557 13.7552C13.6134 13.8975 13.6134 14.1282 13.7557 14.2706C13.898 14.4129 14.1288 14.4129 14.2711 14.2706Z" fill="white"/>
<path d="M15.2642 15.2641C15.4065 15.1218 15.4065 14.891 15.2642 14.7487C15.1219 14.6064 14.8912 14.6064 14.7489 14.7487C14.6066 14.891 14.6066 15.1218 14.7489 15.2641C14.8912 15.4064 15.1219 15.4064 15.2642 15.2641Z" fill="white"/>
<path d="M17.2515 17.2513C17.3938 17.109 17.3938 16.8782 17.2515 16.7359C17.1092 16.5936 16.8785 16.5936 16.7362 16.7359C16.5939 16.8782 16.5939 17.109 16.7362 17.2513C16.8785 17.3936 17.1092 17.3936 17.2515 17.2513Z" fill="white"/>
<path d="M18.2457 18.2449C18.388 18.1025 18.388 17.8718 18.2457 17.7295C18.1034 17.5872 17.8726 17.5872 17.7303 17.7295C17.588 17.8718 17.588 18.1025 17.7303 18.2449C17.8726 18.3872 18.1034 18.3872 18.2457 18.2449Z" fill="white"/>
<path d="M19.2388 19.2384C19.3811 19.0961 19.3811 18.8653 19.2388 18.723C19.0965 18.5807 18.8658 18.5807 18.7235 18.723C18.5812 18.8653 18.5812 19.0961 18.7235 19.2384C18.8658 19.3807 19.0965 19.3807 19.2388 19.2384Z" fill="white"/>
<path d="M20.232 20.232C20.3743 20.0897 20.3743 19.8589 20.232 19.7166C20.0897 19.5743 19.859 19.5743 19.7167 19.7166C19.5743 19.8589 19.5743 20.0897 19.7167 20.232C19.859 20.3743 20.0897 20.3743 20.232 20.232Z" fill="white"/>
<path d="M21.2261 21.2255C21.3685 21.0832 21.3685 20.8525 21.2261 20.7102C21.0838 20.5679 20.8531 20.5679 20.7108 20.7102C20.5685 20.8525 20.5685 21.0832 20.7108 21.2255C20.8531 21.3678 21.0838 21.3678 21.2261 21.2255Z" fill="white"/>
<path d="M22.2193 22.2191C22.3616 22.0768 22.3616 21.8461 22.2193 21.7038C22.077 21.5614 21.8463 21.5614 21.704 21.7038C21.5617 21.8461 21.5617 22.0768 21.704 22.2191C21.8463 22.3614 22.077 22.3614 22.2193 22.2191Z" fill="white"/>
<path d="M10.2967 21.7037C10.1544 21.5614 9.9237 21.5614 9.78139 21.7037C9.63908 21.846 9.63908 22.0768 9.78139 22.2191C9.9237 22.3614 10.1544 22.3614 10.2967 22.2191C10.439 22.0768 10.439 21.846 10.2967 21.7037Z" fill="white"/>
<path d="M11.2899 20.7102C11.1476 20.5679 10.9169 20.5679 10.7746 20.7102C10.6322 20.8525 10.6322 21.0832 10.7746 21.2255C10.9169 21.3679 11.1476 21.3679 11.2899 21.2255C11.4322 21.0832 11.4322 20.8525 11.2899 20.7102Z" fill="white"/>
<path d="M12.284 19.7166C12.1417 19.5743 11.911 19.5743 11.7687 19.7166C11.6264 19.8589 11.6264 20.0896 11.7687 20.232C11.911 20.3743 12.1417 20.3743 12.284 20.232C12.4263 20.0896 12.4263 19.8589 12.284 19.7166Z" fill="white"/>
<path d="M13.2772 18.723C13.1349 18.5807 12.9042 18.5807 12.7619 18.723C12.6195 18.8653 12.6195 19.0961 12.7619 19.2384C12.9042 19.3807 13.1349 19.3807 13.2772 19.2384C13.4195 19.0961 13.4195 18.8653 13.2772 18.723Z" fill="white"/>
<path d="M14.2713 17.7295C14.129 17.5872 13.8983 17.5872 13.756 17.7295C13.6137 17.8718 13.6137 18.1025 13.756 18.2448C13.8983 18.3871 14.129 18.3871 14.2713 18.2448C14.4137 18.1025 14.4137 17.8718 14.2713 17.7295Z" fill="white"/>
<path d="M15.2645 16.736C15.1222 16.5936 14.8915 16.5936 14.7492 16.736C14.6069 16.8783 14.6069 17.109 14.7492 17.2513C14.8915 17.3936 15.1222 17.3936 15.2645 17.2513C15.4068 17.109 15.4068 16.8783 15.2645 16.736Z" fill="white"/>
<path d="M17.2518 14.7488C17.1095 14.6065 16.8788 14.6065 16.7365 14.7488C16.5942 14.8911 16.5942 15.1218 16.7365 15.2641C16.8788 15.4064 17.1095 15.4064 17.2518 15.2641C17.3941 15.1218 17.3941 14.8911 17.2518 14.7488Z" fill="white"/>
<path d="M18.245 13.7552C18.1027 13.6129 17.8719 13.6129 17.7296 13.7552C17.5873 13.8975 17.5873 14.1282 17.7296 14.2705C17.8719 14.4128 18.1027 14.4128 18.245 14.2705C18.3873 14.1282 18.3873 13.8975 18.245 13.7552Z" fill="white"/>
<path d="M19.2391 12.7616C19.0968 12.6193 18.8661 12.6193 18.7238 12.7616C18.5815 12.904 18.5815 13.1347 18.7238 13.277C18.8661 13.4193 19.0968 13.4193 19.2391 13.277C19.3814 13.1347 19.3814 12.904 19.2391 12.7616Z" fill="white"/>
<path d="M20.2323 11.7681C20.09 11.6257 19.8592 11.6257 19.7169 11.7681C19.5746 11.9104 19.5746 12.1411 19.7169 12.2834C19.8592 12.4257 20.09 12.4257 20.2323 12.2834C20.3746 12.1411 20.3746 11.9104 20.2323 11.7681Z" fill="white"/>
<path d="M21.2264 10.7745C21.0841 10.6322 20.8534 10.6322 20.7111 10.7745C20.5688 10.9168 20.5688 11.1476 20.7111 11.2899C20.8534 11.4322 21.0841 11.4322 21.2264 11.2899C21.3687 11.1476 21.3687 10.9168 21.2264 10.7745Z" fill="white"/>
<path d="M22.2196 9.78094C22.0773 9.63863 21.8466 9.63863 21.7042 9.78094C21.5619 9.92325 21.5619 10.154 21.7042 10.2963C21.8466 10.4386 22.0773 10.4386 22.2196 10.2963C22.3619 10.154 22.3619 9.92325 22.2196 9.78094Z" fill="white"/>
</svg>
