<svg width="32" height="32" viewBox="0 0 32 32" fill="none" xmlns="http://www.w3.org/2000/svg">
<circle cx="16" cy="16" r="16" fill="#0033AD"/>
<path d="M11.6617 16.0038C11.6421 16.3466 11.7593 16.6832 11.9876 16.9396C12.2159 17.196 12.5367 17.3513 12.8795 17.3713H12.9501C13.2026 17.371 13.4494 17.2969 13.6601 17.1579C13.8709 17.019 14.0364 16.8214 14.1361 16.5895C14.2359 16.3576 14.2655 16.1015 14.2215 15.853C14.1774 15.6044 14.0615 15.3742 13.8881 15.1908C13.7147 15.0073 13.4914 14.8786 13.2457 14.8206C13 14.7627 12.7427 14.7779 12.5056 14.8644C12.2684 14.9509 12.0618 15.105 11.9112 15.3076C11.7606 15.5102 11.6727 15.7525 11.6582 16.0045L11.6617 16.0038Z" fill="white"/>
<path d="M6.84117 15.6761C6.75876 15.6715 6.67684 15.6914 6.60575 15.7333C6.53466 15.7752 6.47759 15.8373 6.44177 15.9117C6.40594 15.986 6.39296 16.0693 6.40447 16.1511C6.41597 16.2328 6.45145 16.3093 6.50641 16.3709C6.56138 16.4324 6.63336 16.4763 6.71327 16.497C6.79317 16.5177 6.87741 16.5142 6.95535 16.487C7.03328 16.4598 7.1014 16.4102 7.15111 16.3443C7.20081 16.2784 7.22987 16.1992 7.23461 16.1168C7.23785 16.062 7.23024 16.0071 7.2122 15.9553C7.19416 15.9034 7.16605 15.8556 7.12949 15.8147C7.09293 15.7737 7.04864 15.7404 6.99916 15.7166C6.94968 15.6928 6.89599 15.679 6.84117 15.6761Z" fill="white"/>
<path d="M11.5789 8.50169C11.6523 8.464 11.7129 8.40543 11.7531 8.33337C11.7933 8.26131 11.8113 8.17898 11.8047 8.09672C11.7982 8.01447 11.7675 7.93599 11.7165 7.87114C11.6655 7.8063 11.5964 7.758 11.518 7.73232C11.4396 7.70664 11.3554 7.70473 11.2759 7.72683C11.1964 7.74893 11.1252 7.79406 11.0713 7.85652C11.0174 7.91899 10.9832 7.996 10.973 8.07788C10.9627 8.15975 10.9769 8.24282 11.0138 8.31662C11.0386 8.36603 11.0729 8.41003 11.1148 8.44611C11.1567 8.48218 11.2053 8.50961 11.2578 8.52682C11.3104 8.54402 11.3658 8.55066 11.4209 8.54634C11.476 8.54203 11.5297 8.52685 11.5789 8.50169Z" fill="white"/>
<path d="M12.8915 10.7889C13.0054 10.7314 13.0998 10.6414 13.1627 10.5302C13.2255 10.4191 13.254 10.2918 13.2445 10.1645C13.235 10.0372 13.188 9.91554 13.1094 9.81494C13.0308 9.71434 12.9241 9.6393 12.8029 9.59932C12.6816 9.55933 12.5513 9.55619 12.4282 9.59029C12.3052 9.62439 12.1951 9.6942 12.1117 9.7909C12.0283 9.8876 11.9755 10.0068 11.9599 10.1336C11.9443 10.2603 11.9666 10.3888 12.0241 10.5028C12.0622 10.5785 12.1149 10.646 12.1791 10.7014C12.2434 10.7568 12.3179 10.799 12.3985 10.8256C12.479 10.8521 12.564 10.8626 12.6486 10.8563C12.7332 10.85 12.8157 10.8271 12.8915 10.7889Z" fill="white"/>
<path d="M8.47695 12.3619C8.56487 12.4197 8.66796 12.4502 8.77319 12.4494C8.87841 12.4486 8.98104 12.4166 9.06808 12.3575C9.15512 12.2983 9.22267 12.2147 9.26217 12.1172C9.30167 12.0196 9.31136 11.9126 9.29 11.8095C9.26864 11.7065 9.2172 11.6121 9.14218 11.5383C9.06716 11.4645 8.97194 11.4146 8.86857 11.395C8.76519 11.3753 8.65831 11.3868 8.56144 11.4279C8.46457 11.469 8.38207 11.5379 8.32438 11.6259C8.24711 11.7438 8.21977 11.8875 8.24838 12.0255C8.27699 12.1635 8.35919 12.2845 8.47695 12.3619Z" fill="white"/>
<path d="M9.26303 15.4408C9.13558 15.4337 9.00885 15.4644 8.89887 15.5292C8.78889 15.594 8.70059 15.69 8.64514 15.805C8.58969 15.92 8.56957 16.0488 8.58733 16.1753C8.6051 16.3017 8.65994 16.42 8.74493 16.5152C8.82992 16.6105 8.94124 16.6784 9.06483 16.7104C9.18841 16.7424 9.31871 16.7371 9.43925 16.695C9.55979 16.653 9.66516 16.5762 9.74204 16.4742C9.81893 16.3723 9.86388 16.2499 9.8712 16.1225C9.88084 15.9515 9.82221 15.7836 9.70817 15.6558C9.59414 15.528 9.43404 15.4507 9.26303 15.4408Z" fill="white"/>
<path d="M8.54783 19.7814C8.45396 19.8288 8.37626 19.903 8.32456 19.9946C8.27286 20.0862 8.24947 20.1911 8.25736 20.2959C8.26524 20.4008 8.30404 20.501 8.36886 20.5838C8.43367 20.6667 8.52159 20.7284 8.62149 20.7613C8.7214 20.7942 8.82881 20.7967 8.93015 20.7685C9.03148 20.7404 9.1222 20.6828 9.19082 20.6031C9.25944 20.5234 9.30289 20.4251 9.31568 20.3207C9.32847 20.2163 9.31001 20.1105 9.26266 20.0166C9.23119 19.9542 9.18773 19.8986 9.13477 19.853C9.08181 19.8074 9.02038 19.7727 8.95399 19.7508C8.8876 19.729 8.81756 19.7204 8.74787 19.7257C8.67818 19.7309 8.61021 19.7498 8.54783 19.7814Z" fill="white"/>
<path d="M11.0576 14.1065C11.1833 14.1889 11.3306 14.2322 11.4809 14.2309C11.6312 14.2295 11.7778 14.1836 11.902 14.099C12.0262 14.0144 12.1226 13.8949 12.1789 13.7555C12.2352 13.6161 12.2489 13.4632 12.2183 13.316C12.1877 13.1689 12.1141 13.0341 12.0069 12.9287C11.8997 12.8234 11.7636 12.7522 11.616 12.7242C11.4683 12.6961 11.3156 12.7125 11.1772 12.7712C11.0389 12.8299 10.921 12.9284 10.8386 13.0541C10.7838 13.1375 10.7459 13.231 10.7273 13.3291C10.7086 13.4272 10.7094 13.528 10.7298 13.6257C10.7501 13.7235 10.7895 13.8163 10.8458 13.8988C10.902 13.9813 10.974 14.0519 11.0576 14.1065Z" fill="white"/>
<path d="M19.0191 10.738C19.1261 10.8078 19.2515 10.8443 19.3792 10.8429C19.507 10.8415 19.6316 10.8023 19.737 10.7301C19.8425 10.658 19.9243 10.5562 19.9719 10.4376C20.0195 10.319 20.031 10.1889 20.0047 10.0639C19.9784 9.9388 19.9157 9.82431 19.8244 9.73489C19.7331 9.64548 19.6173 9.58514 19.4917 9.5615C19.3661 9.53787 19.2363 9.552 19.1187 9.60211C19.0012 9.65223 18.9011 9.73607 18.8312 9.84305C18.7846 9.91411 18.7525 9.99365 18.7368 10.0771C18.721 10.1606 18.7219 10.2464 18.7394 10.3295C18.7568 10.4127 18.7905 10.4915 18.8385 10.5616C18.8865 10.6317 18.9479 10.6917 19.0191 10.738Z" fill="white"/>
<path d="M20.3442 8.45789C20.4134 8.50324 20.4945 8.52705 20.5772 8.52631C20.6599 8.52556 20.7406 8.5003 20.8089 8.45371C20.8773 8.40712 20.9303 8.3413 20.9612 8.26458C20.9922 8.18786 20.9997 8.10368 20.9828 8.0227C20.9659 7.94172 20.9253 7.86757 20.8663 7.80964C20.8072 7.75171 20.7323 7.7126 20.651 7.69726C20.5697 7.68191 20.4857 7.69103 20.4096 7.72345C20.3335 7.75587 20.2687 7.81014 20.2234 7.87938C20.1628 7.97214 20.1415 8.08516 20.1641 8.19363C20.1867 8.3021 20.2515 8.39714 20.3442 8.45789Z" fill="white"/>
<path d="M19.1211 14.7734C18.9515 14.7636 18.7818 14.7874 18.6214 14.8432C18.4611 14.8991 18.3133 14.986 18.1866 15.099C17.9306 15.3272 17.7757 15.6477 17.756 15.9901C17.7364 16.3324 17.8535 16.6686 18.0817 16.9246C18.3099 17.1805 18.6304 17.3354 18.9727 17.3551C18.9975 17.3551 19.0229 17.3551 19.0476 17.3551C19.297 17.355 19.541 17.2827 19.7503 17.147C19.9595 17.0113 20.1251 16.818 20.2269 16.5903C20.3287 16.3627 20.3626 16.1104 20.3243 15.864C20.286 15.6175 20.1772 15.3874 20.0111 15.2014C19.8986 15.0746 19.7619 14.9714 19.6091 14.8979C19.4563 14.8244 19.2904 14.7821 19.1211 14.7734Z" fill="white"/>
<path d="M13.3157 14.0168C13.423 14.2312 13.588 14.4114 13.7922 14.5371C13.9963 14.6627 14.2315 14.7289 14.4712 14.7281C14.6923 14.7282 14.9096 14.6716 15.1026 14.5637C15.2955 14.4559 15.4576 14.3004 15.5733 14.1121C15.6891 13.9238 15.7546 13.709 15.7638 13.4882C15.7729 13.2673 15.7253 13.0479 15.6254 12.8507C15.5174 12.6372 15.352 12.4581 15.1479 12.3334C14.9438 12.2086 14.709 12.1432 14.4698 12.1443C14.2495 12.1447 14.0329 12.2013 13.8406 12.3089C13.6483 12.4165 13.4867 12.5714 13.3711 12.759C13.2554 12.9466 13.1897 13.1606 13.18 13.3807C13.1703 13.6009 13.217 13.8198 13.3157 14.0168Z" fill="white"/>
<path d="M23.4522 12.3605C23.5461 12.3131 23.6238 12.239 23.6756 12.1474C23.7273 12.0559 23.7508 11.951 23.743 11.8462C23.7352 11.7413 23.6964 11.6411 23.6317 11.5582C23.567 11.4753 23.4791 11.4135 23.3792 11.3806C23.2794 11.3476 23.172 11.345 23.0706 11.373C22.9693 11.4011 22.8785 11.4586 22.8098 11.5382C22.7411 11.6178 22.6976 11.716 22.6847 11.8204C22.6718 11.9248 22.6901 12.0306 22.7373 12.1246C22.8009 12.2506 22.9119 12.3462 23.0459 12.3904C23.18 12.4347 23.3261 12.4239 23.4522 12.3605Z" fill="white"/>
<path d="M20.174 12.7723C20.0398 12.8399 19.9286 12.9458 19.8545 13.0766C19.7805 13.2074 19.7468 13.3572 19.7579 13.5072C19.769 13.6571 19.8243 13.8003 19.9168 13.9188C20.0093 14.0373 20.1349 14.1257 20.2776 14.1728C20.4204 14.2199 20.5739 14.2237 20.7188 14.1835C20.8636 14.1434 20.9934 14.0612 21.0915 13.9474C21.1897 13.8335 21.2519 13.6931 21.2702 13.5439C21.2886 13.3947 21.2623 13.2435 21.1947 13.1092C21.1499 13.02 21.0879 12.9405 21.0123 12.8753C20.9367 12.81 20.849 12.7604 20.7542 12.7291C20.6594 12.6978 20.5594 12.6855 20.4598 12.6929C20.3603 12.7003 20.2631 12.7273 20.174 12.7723Z" fill="white"/>
<path d="M15.9509 8.26292C16.0559 8.2689 16.1604 8.24359 16.251 8.1902C16.3417 8.1368 16.4145 8.05772 16.4602 7.96295C16.5059 7.86819 16.5225 7.76199 16.5078 7.6578C16.4931 7.55361 16.4479 7.45611 16.3778 7.37763C16.3078 7.29915 16.216 7.24322 16.1141 7.21691C16.0122 7.1906 15.9048 7.19509 15.8055 7.22983C15.7062 7.26456 15.6194 7.32796 15.5562 7.41202C15.4929 7.49609 15.456 7.59702 15.4501 7.70207C15.4422 7.84284 15.4905 7.98099 15.5844 8.08616C15.6783 8.19132 15.8101 8.2549 15.9509 8.26292Z" fill="white"/>
<path d="M15.945 11.6103C16.095 11.6187 16.2442 11.5825 16.3736 11.5061C16.5031 11.4298 16.607 11.3168 16.6722 11.1814C16.7375 11.046 16.7611 10.8943 16.7402 10.7455C16.7192 10.5967 16.6546 10.4575 16.5545 10.3453C16.4545 10.2332 16.3234 10.1533 16.1779 10.1157C16.0324 10.078 15.8791 10.0843 15.7372 10.1338C15.5953 10.1834 15.4713 10.2738 15.3808 10.3938C15.2903 10.5138 15.2374 10.6579 15.2288 10.8079C15.2174 11.0093 15.2864 11.2069 15.4207 11.3574C15.5551 11.5079 15.7436 11.5988 15.945 11.6103Z" fill="white"/>
<path d="M11.8278 19.3689C11.962 19.3012 12.0732 19.1952 12.1472 19.0644C12.2212 18.9335 12.2547 18.7836 12.2436 18.6337C12.2324 18.4838 12.177 18.3406 12.0844 18.2221C11.9918 18.1037 11.8662 18.0154 11.7234 17.9683C11.5806 17.9213 11.4271 17.9177 11.2822 17.9579C11.1374 17.9981 11.0077 18.0804 10.9096 18.1943C10.8116 18.3083 10.7495 18.4487 10.7312 18.5979C10.713 18.7472 10.7394 18.8984 10.8071 19.0326C10.8979 19.2126 11.0564 19.349 11.2478 19.4121C11.4392 19.4751 11.6478 19.4596 11.8278 19.3689Z" fill="white"/>
<path d="M16.4361 12.7193C16.2784 12.9598 16.2055 13.2461 16.2289 13.5328C16.2522 13.8194 16.3705 14.0901 16.565 14.3019C16.7596 14.5138 17.0192 14.6547 17.3028 14.7025C17.5864 14.7502 17.8778 14.7019 18.131 14.5654C18.3841 14.4288 18.5844 14.2118 18.7003 13.9485C18.8162 13.6853 18.841 13.391 18.7707 13.1121C18.7005 12.8332 18.5392 12.5857 18.3125 12.4087C18.0858 12.2318 17.8065 12.1355 17.5189 12.1351C17.3041 12.135 17.0926 12.1883 16.9036 12.2903C16.7146 12.3923 16.5539 12.5397 16.4361 12.7193Z" fill="white"/>
<path d="M18.6841 18.125C18.5805 17.9197 18.4241 17.7456 18.2308 17.6209C18.0375 17.4962 17.8145 17.4253 17.5847 17.4156C17.3549 17.4058 17.1267 17.4576 16.9236 17.5655C16.7204 17.6734 16.5498 17.8335 16.4292 18.0294C16.3086 18.2252 16.2425 18.4497 16.2376 18.6796C16.2327 18.9096 16.2893 19.1367 16.4015 19.3375C16.5136 19.5383 16.6773 19.7055 16.8757 19.8219C17.0741 19.9383 17.2999 19.9997 17.5299 19.9997C17.7323 19.9983 17.9315 19.9499 18.112 19.8584C18.4172 19.7039 18.6488 19.4347 18.756 19.1099C18.8632 18.785 18.8374 18.4309 18.6841 18.125Z" fill="white"/>
<path d="M20.9428 18.0346C20.8171 17.9521 20.6698 17.9087 20.5195 17.9099C20.3692 17.9112 20.2226 17.9569 20.0983 18.0415C19.974 18.126 19.8775 18.2455 19.8211 18.3848C19.7647 18.5242 19.7509 18.6771 19.7815 18.8243C19.812 18.9715 19.8855 19.1063 19.9926 19.2117C20.0998 19.3171 20.2358 19.3884 20.3835 19.4166C20.5311 19.4447 20.6838 19.4284 20.8222 19.3697C20.9606 19.3111 21.0785 19.2127 21.161 19.087C21.2713 18.9184 21.3102 18.713 21.2693 18.5157C21.2284 18.3185 21.111 18.1455 20.9428 18.0346Z" fill="white"/>
<path d="M23.4181 16.0928C23.4253 15.9653 23.3946 15.8386 23.3297 15.7286C23.2649 15.6187 23.1689 15.5304 23.054 15.4749C22.939 15.4195 22.8101 15.3993 22.6837 15.4171C22.5573 15.4349 22.439 15.4897 22.3437 15.5747C22.2485 15.6597 22.1805 15.771 22.1485 15.8946C22.1165 16.0182 22.1219 16.1485 22.1639 16.269C22.206 16.3896 22.2828 16.4949 22.3847 16.5718C22.4866 16.6487 22.609 16.6936 22.7365 16.701C22.9075 16.7106 23.0753 16.652 23.2032 16.5379C23.331 16.4239 23.4083 16.2638 23.4181 16.0928Z" fill="white"/>
<path d="M25.2059 15.633C25.1233 15.6283 25.0412 15.6481 24.9699 15.69C24.8986 15.7319 24.8413 15.7941 24.8053 15.8685C24.7693 15.943 24.7562 16.0265 24.7677 16.1084C24.7791 16.1903 24.8146 16.267 24.8697 16.3287C24.9247 16.3904 24.9968 16.4345 25.0768 16.4552C25.1569 16.476 25.2413 16.4726 25.3194 16.4454C25.3975 16.4182 25.4658 16.3684 25.5156 16.3024C25.5654 16.2364 25.5946 16.1571 25.5993 16.0745C25.6055 15.9638 25.5675 15.8552 25.4938 15.7725C25.42 15.6897 25.3165 15.6396 25.2059 15.633Z" fill="white"/>
<path d="M23.5225 19.7793C23.4345 19.7216 23.3314 19.6914 23.2263 19.6923C23.1211 19.6933 23.0186 19.7254 22.9316 19.7846C22.8447 19.8438 22.7773 19.9275 22.7379 20.025C22.6985 20.1226 22.6889 20.2296 22.7104 20.3325C22.7318 20.4355 22.7833 20.5298 22.8583 20.6036C22.9333 20.6773 23.0285 20.7271 23.1318 20.7467C23.2351 20.7664 23.342 20.7549 23.4388 20.7139C23.5356 20.6728 23.6181 20.6039 23.6758 20.516C23.7141 20.4576 23.7406 20.3921 23.7536 20.3235C23.7667 20.2548 23.7661 20.1843 23.7518 20.1159C23.7376 20.0474 23.71 19.9825 23.6707 19.9247C23.6313 19.867 23.581 19.8176 23.5225 19.7793Z" fill="white"/>
<path d="M11.6554 23.6833C11.5862 23.6379 11.5052 23.6141 11.4225 23.6148C11.3398 23.6154 11.2592 23.6406 11.1908 23.6871C11.1224 23.7336 11.0694 23.7994 11.0384 23.876C11.0073 23.9527 10.9997 24.0368 11.0165 24.1178C11.0333 24.1988 11.0737 24.2729 11.1327 24.3309C11.1916 24.3889 11.2664 24.4282 11.3477 24.4437C11.4289 24.4592 11.5129 24.4502 11.589 24.418C11.6652 24.3857 11.7301 24.3316 11.7755 24.2625C11.8056 24.2166 11.8264 24.1652 11.8367 24.1112C11.847 24.0573 11.8466 24.0018 11.8354 23.948C11.8243 23.8942 11.8026 23.8432 11.7717 23.7977C11.7408 23.7523 11.7013 23.7134 11.6554 23.6833Z" fill="white"/>
<path d="M20.4204 23.6395C20.3465 23.6767 20.2854 23.735 20.2446 23.807C20.2039 23.879 20.1854 23.9614 20.1916 24.0439C20.1977 24.1264 20.2282 24.2052 20.2791 24.2704C20.33 24.3355 20.3992 24.3841 20.4777 24.41C20.5563 24.4359 20.6407 24.4379 20.7204 24.4158C20.8001 24.3937 20.8715 24.3484 20.9254 24.2858C20.9794 24.2231 21.0136 24.1458 21.0236 24.0637C21.0337 23.9816 21.0192 23.8984 20.9819 23.8245C20.9573 23.7755 20.9232 23.7317 20.8816 23.6958C20.84 23.66 20.7917 23.6327 20.7396 23.6155C20.6874 23.5983 20.6324 23.5915 20.5776 23.5957C20.5228 23.5998 20.4694 23.6147 20.4204 23.6395Z" fill="white"/>
<path d="M15.5633 19.4197C15.7209 19.1792 15.7938 18.8929 15.7704 18.6062C15.747 18.3195 15.6287 18.0488 15.4341 17.8369C15.2396 17.6251 14.9799 17.4842 14.6963 17.4365C14.4126 17.3888 14.1212 17.4372 13.868 17.5738C13.6149 17.7104 13.4146 17.9276 13.2988 18.1909C13.183 18.4542 13.1584 18.7486 13.2287 19.0275C13.2991 19.3064 13.4605 19.5538 13.6873 19.7307C13.9141 19.9075 14.1935 20.0037 14.4811 20.0039C14.6959 20.0046 14.9075 19.9515 15.0965 19.8495C15.2855 19.7475 15.446 19.5997 15.5633 19.4197Z" fill="white"/>
<path d="M12.9805 21.4039C12.8737 21.334 12.7485 21.2973 12.6208 21.2986C12.4932 21.2998 12.3688 21.3388 12.2633 21.4108C12.1578 21.4827 12.0761 21.5843 12.0283 21.7027C11.9806 21.8211 11.969 21.9509 11.995 22.0759C12.0211 22.2009 12.0836 22.3153 12.1747 22.4048C12.2658 22.4942 12.3814 22.5547 12.5068 22.5784C12.6322 22.6022 12.7619 22.5883 12.8794 22.5384C12.9969 22.4885 13.097 22.4049 13.167 22.2981C13.2607 22.1548 13.2937 21.9801 13.2588 21.8124C13.2238 21.6447 13.1237 21.4978 12.9805 21.4039Z" fill="white"/>
<path d="M15.9937 23.8782C15.8887 23.8723 15.7843 23.8976 15.6937 23.9509C15.603 24.0043 15.5302 24.0833 15.4845 24.1781C15.4388 24.2728 15.4222 24.379 15.4368 24.4831C15.4514 24.5873 15.4966 24.6848 15.5666 24.7633C15.6366 24.8418 15.7283 24.8978 15.8301 24.9241C15.9319 24.9505 16.0393 24.9461 16.1386 24.9115C16.2379 24.8769 16.3248 24.8136 16.3881 24.7296C16.4515 24.6457 16.4885 24.5448 16.4945 24.4398C16.4985 24.37 16.4888 24.3002 16.4658 24.2342C16.4428 24.1682 16.407 24.1074 16.3605 24.0552C16.314 24.0031 16.2576 23.9606 16.1947 23.9303C16.1318 23.8999 16.0635 23.8822 15.9937 23.8782Z" fill="white"/>
<path d="M15.9995 20.5316C15.8493 20.5224 15.6998 20.5581 15.5699 20.634C15.44 20.7099 15.3356 20.8226 15.2698 20.958C15.2041 21.0933 15.1799 21.2451 15.2005 21.3941C15.2211 21.5431 15.2854 21.6827 15.3854 21.7952C15.4853 21.9076 15.6164 21.9878 15.762 22.0257C15.9076 22.0636 16.0612 22.0574 16.2033 22.008C16.3454 21.9585 16.4696 21.868 16.5602 21.7479C16.6508 21.6278 16.7037 21.4835 16.7122 21.3333C16.7238 21.1325 16.6553 20.9353 16.5216 20.785C16.388 20.6347 16.2002 20.5436 15.9995 20.5316Z" fill="white"/>
<path d="M19.1088 21.3523C18.9947 21.4102 18.9004 21.5006 18.8377 21.6121C18.7751 21.7236 18.7469 21.8512 18.7568 21.9787C18.7667 22.1062 18.8142 22.2279 18.8933 22.3284C18.9724 22.4289 19.0796 22.5037 19.2012 22.5432C19.3228 22.5828 19.4534 22.5854 19.5765 22.5507C19.6996 22.516 19.8096 22.4456 19.8927 22.3484C19.9757 22.2511 20.0281 22.1314 20.0431 22.0044C20.058 21.8774 20.035 21.7487 19.9769 21.6348C19.9385 21.5592 19.8856 21.4919 19.8211 21.4368C19.7567 21.3817 19.682 21.3398 19.6014 21.3135C19.5208 21.2873 19.4358 21.2772 19.3512 21.2838C19.2667 21.2905 19.1843 21.3138 19.1088 21.3523Z" fill="white"/>
</svg>
