<svg width="32" height="32" viewBox="0 0 32 32" fill="none" xmlns="http://www.w3.org/2000/svg">
<circle cx="16" cy="16" r="16" fill="#7D8FA9"/>
<path fill-rule="evenodd" clip-rule="evenodd" d="M13.2543 8.85741C12.9508 8.55399 12.9508 8.062 13.2543 7.75857L15.452 5.56086C15.7554 5.25738 16.2474 5.25738 16.5508 5.56086L18.7486 7.75857C19.052 8.062 19.052 8.55399 18.7486 8.85741L17.9244 9.6817L22.3193 14.0767L23.1432 13.2528C23.4466 12.9494 23.9386 12.9494 24.242 13.2528L26.4398 15.4505C26.7432 15.754 26.7432 16.2459 26.4398 16.5494L24.242 18.7471C23.9386 19.0505 23.4466 19.0505 23.1432 18.7471L22.3193 17.9232L17.9244 22.3182L18.7486 23.1424C19.052 23.4459 19.052 23.9378 18.7486 24.2413L16.5508 26.439C16.2474 26.7424 15.7554 26.7424 15.452 26.439L13.2543 24.2413C12.9508 23.9378 12.9508 23.4459 13.2543 23.1424L14.0779 22.3188L9.68219 17.9231L8.85813 18.7471C8.55471 19.0505 8.06272 19.0505 7.7593 18.7471L5.56162 16.5494C5.2581 16.2459 5.2581 15.754 5.56162 15.4505L7.7593 13.2528C8.06272 12.9494 8.55471 12.9494 8.85813 13.2528L9.68219 14.0768L14.0779 9.68104L13.2543 8.85741ZM17.3749 10.2312L21.7699 14.6261L20.9455 15.4505C20.8963 15.4997 20.855 15.5539 20.8217 15.6114H18.8723C18.839 15.5539 18.7978 15.4997 18.7486 15.4505L16.5508 13.2528C16.5015 13.2035 16.4473 13.1622 16.3896 13.1289V11.179C16.4473 11.1457 16.5015 11.1045 16.5508 11.0551L17.3749 10.2312ZM13.1305 15.6114C13.1638 15.5539 13.2051 15.4997 13.2543 15.4505L15.452 13.2528C15.5011 13.2037 15.5552 13.1625 15.6126 13.1293V11.1786C15.5552 11.1454 15.5011 11.1043 15.452 11.0551L14.6274 10.2305L10.2317 14.6262L11.0559 15.4505C11.1051 15.4997 11.1463 15.5539 11.1796 15.6114H13.1305ZM11.1796 16.3884H13.1305C13.1638 16.446 13.2051 16.5002 13.2543 16.5494L15.452 18.7471C15.5011 18.7962 15.5552 18.8374 15.6126 18.8706V20.8212C15.5552 20.8544 15.5011 20.8956 15.452 20.9447L14.6274 21.7694L10.2317 17.3736L11.0559 16.5494C11.1051 16.5002 11.1463 16.446 11.1796 16.3884ZM18.8723 16.3884H20.8217C20.855 16.446 20.8963 16.5002 20.9455 16.5494L21.7699 17.3737L17.3749 21.7687L16.5508 20.9447C16.5015 20.8954 16.4473 20.8542 16.3896 20.8209V18.8709C16.4473 18.8377 16.5015 18.7964 16.5508 18.7471L18.7486 16.5494C18.7978 16.5002 18.839 16.446 18.8723 16.3884Z" fill="white"/>
</svg>
