<svg width="32" height="32" viewBox="0 0 32 32" fill="none" xmlns="http://www.w3.org/2000/svg">
<circle cx="16" cy="16" r="16" fill="#F3BA2F"/>
<path d="M11.339 14.085L15.9998 9.42436L20.663 14.0874L23.375 11.3754L15.9998 4L8.62713 11.373L11.339 14.085ZM4 15.9996L6.71208 13.2875L9.42399 15.9995L6.71193 18.7115L4 15.9996ZM11.339 17.915L15.9998 22.5756L20.6629 17.9127L23.3763 20.6232L23.375 20.6247L15.9998 28L8.62689 20.6272L8.62305 20.6234L11.339 17.915ZM22.5761 16.0011L25.2882 13.289L28.0001 16.0009L25.288 18.713L22.5761 16.0011Z" fill="white"/>
<path d="M18.7501 15.9986H18.7513L15.9994 13.2466L13.9656 15.2804H13.9655L13.7319 15.5141L13.2499 15.9962L13.2461 15.9999L13.2499 16.0039L15.9994 18.7534L18.7513 16.0015L18.7527 15.9999L18.7501 15.9986Z" fill="white"/>
</svg>
