<svg width="32" height="32" viewBox="0 0 32 32" fill="none" xmlns="http://www.w3.org/2000/svg">
<circle cx="16" cy="16" r="16" fill="#E6007A"/>
<path d="M16.001 11.0486C17.8284 11.0486 19.3097 10.1871 19.3097 9.12432C19.3097 8.06155 17.8284 7.20001 16.001 7.20001C14.1737 7.20001 12.6924 8.06155 12.6924 9.12432C12.6924 10.1871 14.1737 11.0486 16.001 11.0486Z" fill="white"/>
<path d="M16.001 25.548C17.8284 25.548 19.3097 24.6864 19.3097 23.6236C19.3097 22.5609 17.8284 21.6993 16.001 21.6993C14.1737 21.6993 12.6924 22.5609 12.6924 23.6236C12.6924 24.6864 14.1737 25.548 16.001 25.548Z" fill="white"/>
<path d="M11.3899 13.7123C12.3035 12.1299 12.2976 10.416 11.3766 9.88424C10.4557 9.3525 8.96838 10.2043 8.05472 11.7867C7.14106 13.3692 7.14699 15.0831 8.06797 15.6148C8.98894 16.1466 10.4762 15.2948 11.3899 13.7123Z" fill="white"/>
<path d="M23.9452 20.9611C24.8589 19.3786 24.8535 17.665 23.9331 17.1337C23.0128 16.6023 21.526 17.4543 20.6123 19.0368C19.6987 20.6193 19.7041 22.3329 20.6245 22.8643C21.5448 23.3956 23.0316 22.5436 23.9452 20.9611Z" fill="white"/>
<path d="M11.3766 22.8638C12.2976 22.3321 12.3035 20.6182 11.3899 19.0357C10.4762 17.4532 8.98894 16.6015 8.06797 17.1332C7.14699 17.6649 7.14106 19.3788 8.05472 20.9613C8.96838 22.5438 10.4557 23.3955 11.3766 22.8638Z" fill="white"/>
<path d="M23.9341 15.6153C24.8544 15.0839 24.8599 13.3703 23.9462 11.7878C23.0326 10.2053 21.5458 9.35327 20.6254 9.88465C19.7051 10.416 19.6997 12.1296 20.6133 13.7121C21.527 15.2946 23.0137 16.1466 23.9341 15.6153Z" fill="white"/>
</svg>
