<svg width="32" height="32" viewBox="0 0 32 32" fill="none" xmlns="http://www.w3.org/2000/svg">
<rect width="32" height="32" rx="16" fill="#DDE1E8"/>
<path d="M9.75211 25.6L12.5288 20.7916L15.3056 16L18.0653 11.1916L18.5225 10.4297L18.7257 11.1916L19.5722 14.3577L18.6241 16L15.8474 20.7916L13.0876 25.6H16.4061L19.1828 20.7916L20.622 18.3027L21.2992 20.7916L22.586 25.6H25.5659L24.2791 20.7916L22.9923 16L22.6537 14.764L24.7193 11.1916H21.7056L21.604 10.836L20.5542 6.90796L20.4188 6.40002H17.5235L17.4558 6.50161L14.7468 11.1916L11.9701 16L9.21031 20.7916L6.43359 25.6H9.75211Z" fill="black"/>
</svg>
