<svg width="32" height="32" viewBox="0 0 32 32" fill="none" xmlns="http://www.w3.org/2000/svg">
<path d="M16 32C24.8366 32 32 24.8366 32 16C32 7.16344 24.8366 0 16 0C7.16344 0 0 7.16344 0 16C0 24.8366 7.16344 32 16 32Z" fill="black"/>
<path d="M9.87344 20.4103C9.93397 20.3439 10.0077 20.291 10.0899 20.2548C10.1719 20.219 10.2603 20.2002 10.3498 20.1998L25.0122 20.212C25.0747 20.212 25.1358 20.2302 25.1881 20.2643C25.2405 20.2984 25.2817 20.3471 25.3069 20.4042C25.3321 20.4614 25.3401 20.5247 25.33 20.5864C25.3199 20.648 25.2921 20.7054 25.2499 20.7515L22.1274 24.1897C22.0671 24.256 21.9935 24.309 21.9115 24.3452C21.8295 24.3815 21.7408 24.4002 21.6511 24.4001L6.98911 24.388C6.92671 24.3878 6.8657 24.3695 6.81349 24.3353C6.76127 24.3012 6.72009 24.2526 6.69493 24.1955C6.66977 24.1384 6.66171 24.0752 6.67173 24.0136C6.68175 23.952 6.70942 23.8946 6.75138 23.8485L9.87344 20.4103ZM25.2486 17.5485C25.2908 17.5946 25.3186 17.652 25.3287 17.7136C25.3388 17.7753 25.3308 17.8386 25.3056 17.8958C25.2804 17.9529 25.2392 18.0016 25.1868 18.0357C25.1345 18.0698 25.0734 18.088 25.0109 18.088L10.3489 18.1001C10.2592 18.1002 10.1705 18.0815 10.0885 18.0453C10.0065 18.009 9.93292 17.956 9.87257 17.8897L6.75095 14.4498C6.70897 14.4035 6.6813 14.3461 6.67127 14.2844C6.66113 14.2228 6.66911 14.1596 6.69425 14.1025C6.71939 14.0454 6.76061 13.9968 6.81287 13.9627C6.86519 13.9286 6.92622 13.9102 6.98868 13.9098L21.6511 13.8981C21.7408 13.898 21.8295 13.9166 21.9116 13.9528C21.9936 13.9891 22.0671 14.0422 22.1274 14.1086L25.2486 17.5485ZM9.87344 7.81035C9.9337 7.74391 10.0072 7.69085 10.0893 7.6546C10.1713 7.61835 10.2601 7.59972 10.3498 7.5999L25.0122 7.61203C25.0746 7.6121 25.1357 7.6303 25.1879 7.66444C25.2402 7.69857 25.2814 7.74715 25.3066 7.80429C25.3318 7.86131 25.3398 7.92442 25.3297 7.98592C25.3197 8.04743 25.2919 8.10468 25.2499 8.1507L22.1274 11.5889C22.0671 11.6552 21.9935 11.7082 21.9115 11.7444C21.8295 11.7807 21.7408 11.7994 21.6511 11.7993L6.98911 11.7872C6.9266 11.7872 6.86546 11.769 6.81316 11.7347C6.76086 11.7005 6.71967 11.6518 6.69466 11.5945C6.66971 11.5374 6.6618 11.4744 6.67186 11.4129C6.68192 11.3514 6.70954 11.2942 6.75138 11.2481L9.87344 7.81035Z" fill="url(#paint0_linear_14_87636)"/>
<defs>
<linearGradient id="paint0_linear_14_87636" x1="7.23376" y1="24.766" x2="24.7658" y2="7.234" gradientUnits="userSpaceOnUse">
<stop stop-color="#9945FF"/>
<stop offset="0.2" stop-color="#7962E7"/>
<stop offset="1" stop-color="#00D18C"/>
</linearGradient>
</defs>
</svg>
