<svg width="32" height="32" viewBox="0 0 32 32" fill="none" xmlns="http://www.w3.org/2000/svg">
<circle cx="16" cy="16" r="16" fill="#50AF95"/>
<path fill-rule="evenodd" clip-rule="evenodd" d="M14.0463 17.4867C14.1554 17.4948 14.7191 17.5284 15.9764 17.5284C16.9765 17.5284 17.6865 17.4985 17.9356 17.4867C21.8003 17.317 24.685 16.6457 24.685 15.8419C24.685 15.0381 21.8003 14.3677 17.9356 14.1953V16.8181C17.6829 16.8362 16.9592 16.8788 15.9592 16.8788C14.7591 16.8788 14.1582 16.8289 14.05 16.819V14.1971C10.1934 14.3686 7.3151 15.0399 7.3151 15.8419C7.3151 16.6439 10.1925 17.3152 14.05 17.4858L14.0463 17.4867ZM14.0463 13.9259V11.5789H8.66426V8H23.3177V11.5789H17.9365V13.925C22.3104 14.1255 25.5996 14.99 25.5996 16.0261C25.5996 17.0621 22.3104 17.9258 17.9365 18.1272V25.6479H14.0472V18.1244C9.6834 17.9239 6.39961 17.0603 6.39961 16.0252C6.39961 14.99 9.68067 14.1264 14.0472 13.925L14.0463 13.9259Z" fill="white"/>
</svg>
